<?xml version="1.0" encoding="utf-8"?>

<!-- The icon can be used freely in both personal and commercial projects with no attribution required, but always appreciated. 
You may NOT sub-license, resell, rent, redistribute or otherwise transfer the icon without express written permission from iconmonstr.com -->

<!DOCTYPE svg PUBLIC "-//W3C//DTD SVG 1.1//EN" "http://www.w3.org/Graphics/SVG/1.1/DTD/svg11.dtd">
<svg version="1.1" xmlns="http://www.w3.org/2000/svg" xmlns:xlink="http://www.w3.org/1999/xlink" x="0px" y="0px"
	 width="512px" height="512px" viewBox="0 0 512 512" enable-background="new 0 0 512 512" xml:space="preserve">
<path id="calendar-7-icon" d="M321.889,114.214c0,10.035-8.135,18.17-18.17,18.17s-18.171-8.135-18.171-18.17V68.485
	c0-10.035,8.136-18.17,18.171-18.17s18.17,8.135,18.17,18.17V114.214z M159.389,68.403c0-10.035-8.136-18.172-18.17-18.172
	c-10.036,0-18.171,8.137-18.171,18.172v45.727c0,10.035,8.135,18.172,18.171,18.172c10.034,0,18.17-8.137,18.17-18.172V68.403z
	 M343.852,94.933v18.617c0,22.129-18.004,40.133-40.133,40.133c-22.13,0-40.134-18.004-40.134-40.133V94.933h-82.233v18.533
	c0,22.131-18.004,40.135-40.133,40.135c-22.13,0-40.134-18.004-40.134-40.135V94.933H57.5v299.984h329V94.933H343.852z
	 M183.002,335.81c-29.651,0-49.339-17.137-48.808-49.625h28.032c0.51,14.387,6.28,24.93,20.416,24.93
	c9.319,0,18.723-5.566,18.723-18.002c0-15.754-10.934-16.916-29.266-16.916V254.22c12.899,1.129,26.917-0.729,26.917-13.676
	c0-10.258-8.302-14.93-16.015-14.93c-12.941,0-17.847,9.518-17.604,22.582h-28.232c1.159-31.576,20.302-47.459,45.656-47.459
	c21.788,0,44.323,13.809,44.323,36.916c0,11.961-5.28,21.281-14.364,25.816c11.88,4.566,19.062,15.326,19.062,29.1
	C231.842,319.616,209.495,335.81,183.002,335.81z M305.908,333.46h-29.392v-82.012h-31.794v-23.123
	c20.2,0.547,34.327-5.246,37.292-25.059h23.894V333.46z M419.5,127.278V426.61h-328v35.158h363v-334.49H419.5z"/>
</svg>
