<?xml version="1.0" encoding="utf-8"?>
<!-- Generator: Adobe Illustrator 16.0.0, SVG Export Plug-In . SVG Version: 6.00 Build 0)  -->
<!DOCTYPE svg PUBLIC "-//W3C//DTD SVG 1.1//EN" "http://www.w3.org/Graphics/SVG/1.1/DTD/svg11.dtd">
<svg version="1.1" id="Capa_1" xmlns="http://www.w3.org/2000/svg" xmlns:xlink="http://www.w3.org/1999/xlink" x="0px" y="0px"
	 width="64px" height="64px" viewBox="0 0 64 64" enable-background="new 0 0 64 64" xml:space="preserve">
<path d="M45.557,27.044c0.366-0.499,0.633-1.087,0.676-1.752c0.074-1.15-0.487-2.25-1.674-3.273
	c0.832-1.207,1.145-2.422,0.905-3.623c-0.36-1.837-1.914-3.047-2.771-3.589c0.391-1.181,0.42-2.309,0.049-3.357
	c-0.483-1.365-1.592-2.493-3.207-3.26c-2.242-1.064-3.059-1.545-3.85-3.736c-0.42-1.17-1.072-1.934-1.937-2.272
	c-1.097-0.431-2.057,0.037-2.163,0.092L30.5,2.842l0.774,0.955c0.22,0.27,0.381,0.668,0.347,0.776
	c-0.001,0.002-0.117,0.163-0.688,0.275c-2.618,0.519-3.533,2.641-3.818,3.605c-1.076,0.677-4.005,2.667-4.596,4.62
	c-0.447,1.475-0.191,3.129,0.049,4.128c-1.455,0.712-4.213,2.479-4.42,5.726c-0.136,2.118,0.422,3.569,1.032,4.504
	c-0.88,0.734-1.453,1.825-1.453,3.059v1.876c0,2.243,1.317,4,3,4c0.521,0,1.553,0.842,1.986,2.161l6.127,18.634
	c0.651,1.983,2.469,3.538,4.137,3.538c1.687,0,3.489-1.5,4.199-3.49l6.653-18.682c0.448-1.26,1.19-2.082,1.397-2.161
	c1.373,0,2.332-1.646,2.332-4V30.49C47.561,29.015,46.749,27.737,45.557,27.044z M28.973,9.248c0.008-0.05,0.369-2.045,2.349-2.436
	c1.446-0.286,1.985-1.011,2.183-1.568c0.065-0.184,0.101-0.367,0.112-0.547c0.066,0.129,0.13,0.274,0.188,0.435
	c1.059,2.935,2.469,3.725,4.872,4.865c0.783,0.372,1.798,1.042,2.179,2.12c0.24,0.676,0.184,1.444-0.14,2.283
	c-2.604,0.054-4.748,0.046-8.538-1.598C28.88,11.371,28.962,9.402,28.973,9.248z M24.434,13.653
	c0.246-0.812,1.551-1.977,2.815-2.883c0.428,1.188,1.502,2.724,4.133,3.865c4.329,1.878,6.796,1.823,9.658,1.758l0.401-0.008
	c0.498,0.289,1.814,1.162,2.061,2.396c0.13,0.66-0.089,1.38-0.623,2.144c-2.783-1.274-6.941-1.124-10.367-1.005
	c-1.414,0.052-2.752,0.1-3.753,0.036c-3.048-0.191-4-2.415-4.049-2.535C24.685,17.35,23.952,15.24,24.434,13.653z M20.144,23.055
	c0.137-2.146,2.09-3.438,3.198-4.001c0.721,1.072,2.301,2.713,5.291,2.899c1.102,0.069,2.484,0.02,3.948-0.033
	c3.616-0.126,8.11-0.288,10.231,1.265c0.676,0.494,1.47,1.238,1.422,1.978c-0.037,0.567-0.553,1.055-0.957,1.327h-21.55
	c-0.246,0-0.484,0.03-0.719,0.072C20.561,25.979,20.027,24.889,20.144,23.055z M27.767,47.495l0.363-0.37l2.806,2.675l-1.779,1.921
	L27.767,47.495z M34.404,46.055l-2.788,3.012l-2.785-2.652l2.909-2.967L34.404,46.055z M32.44,42.732l3.371-3.437l2.559,2.479
	l-3.282,3.543L32.44,42.732z M35.293,56.537c-0.441,1.236-1.587,2.162-2.316,2.162c-0.721,0-1.83-0.926-2.233-2.162l-1.226-3.73
	l2.146-2.316l4.315,4.117L35.293,56.537z M36.348,53.576l-4.007-3.82l2.78-3.003l2.712,2.651L36.348,53.576z M38.202,48.367
	l-2.401-2.348l3.285-3.549l0.904,0.877L38.202,48.367z M45.561,32.366c0,1.065-0.289,1.796-0.469,2.006
	c-1.348,0.11-2.566,1.858-3.146,3.483l-1.588,4.457l-0.592-0.576l0.727-0.781c0.188-0.203,0.175-0.52-0.027-0.707
	c-0.203-0.188-0.521-0.176-0.707,0.027l-0.709,0.766l-2.533-2.457l2.647-2.699c0.192-0.197,0.188-0.515-0.009-0.707
	c-0.195-0.195-0.514-0.191-0.707,0.006l-2.652,2.705l-2.801-2.715c-0.197-0.191-0.513-0.188-0.707,0.012
	c-0.191,0.199-0.187,0.518,0.012,0.707l2.797,2.709l-3.368,3.436l-2.892-2.828c-0.198-0.189-0.515-0.189-0.707,0.008
	c-0.193,0.197-0.19,0.516,0.008,0.707l2.891,2.827l-2.918,2.976l-1.345-1.283l-2.148-6.533c-0.662-2.018-2.333-3.538-3.887-3.538
	c-0.408,0-1-0.778-1-2v-1.88c0-1.103,0.898-2,2-2h21.833c1.104,0,2,0.897,2,2v1.876h-0.002V32.366z"/>
</svg>
