<?xml version="1.0" encoding="utf-8"?>
<!-- Generator: Adobe Illustrator 16.0.0, SVG Export Plug-In . SVG Version: 6.00 Build 0)  -->
<!DOCTYPE svg PUBLIC "-//W3C//DTD SVG 1.1//EN" "http://www.w3.org/Graphics/SVG/1.1/DTD/svg11.dtd">
<svg version="1.1" id="Capa_1" xmlns="http://www.w3.org/2000/svg" xmlns:xlink="http://www.w3.org/1999/xlink" x="0px" y="0px"
	 width="64px" height="64px" viewBox="0 0 64 64" enable-background="new 0 0 64 64" xml:space="preserve">
<path d="M60.332,39.441L48.318,18.129c-0.098-0.174-0.245-0.314-0.424-0.403l-6.789-3.389c-0.188-0.094-0.398-0.118-0.604-0.085
	c-1.195-2.678-3.257-4.876-6.646-4.876c-3.871,0-6.263,1.855-7.679,4.152c-0.688-0.153-1.4-0.24-2.133-0.24
	c-5.41,0-9.813,4.402-9.813,9.812c0,2.417,0.883,4.629,2.337,6.34L9.735,45.1c-0.851,1.951,0.102,4.256,2.125,5.137l0.304,0.135
	c0.529,0.229,1.089,0.35,1.647,0.35c0.466,0,0.93-0.082,1.375-0.242c0.994-0.363,1.771-1.09,2.188-2.041l1.05-2.406l-0.329-0.178
	c-0.486-0.264-0.669-0.867-0.407-1.354s0.869-0.669,1.354-0.407l0.185,0.1l1.256-2.879l-0.458-0.246
	c-0.486-0.262-0.669-0.869-0.407-1.354c0.262-0.486,0.87-0.668,1.354-0.406l0.314,0.17l1.193-2.736l-0.099-0.053
	c-0.486-0.263-0.669-0.867-0.407-1.354c0.253-0.473,0.828-0.646,1.305-0.425l0.872-1.997c5.361-0.059,9.708-4.432,9.708-9.807
	c0-3.953-2.354-7.359-5.729-8.912c1.089-1.554,2.851-2.812,5.729-2.812c2.535,0,4.015,1.757,4.877,3.793l-3.573,2.016
	c-0.304,0.17-0.494,0.485-0.509,0.832l-0.291,7.379c-0.008,0.186,0.037,0.369,0.127,0.531L46.503,47.24
	c0.185,0.326,0.522,0.51,0.872,0.51c0.166,0,0.335-0.041,0.49-0.129l12.088-6.812c0.23-0.129,0.4-0.347,0.472-0.603
	C60.495,39.947,60.462,39.674,60.332,39.441z M15.541,47.631c-0.195,0.447-0.565,0.789-1.041,0.963
	c-0.493,0.182-1.038,0.159-1.537-0.059l-0.305-0.133c-1.011-0.44-1.499-1.563-1.089-2.504l6.547-15.001
	c1.145,0.872,2.479,1.507,3.938,1.809L15.541,47.631z M31.856,23.098c0,4.308-3.505,7.812-7.812,7.812
	c-0.278,0-0.554-0.016-0.825-0.045l-0.34-0.052c-1.492-0.225-2.845-0.868-3.937-1.812c-1.656-1.434-2.71-3.546-2.71-5.903
	c0-4.308,3.505-7.812,7.812-7.812c0.415,0,0.82,0.042,1.217,0.104c-0.265,0.689-0.464,1.381-0.603,2.051
	c-1.375,0.327-2.404,1.558-2.404,3.032c0,1.723,1.401,3.124,3.124,3.124s3.124-1.402,3.124-3.124c0-1.26-0.753-2.342-1.83-2.835
	c0.117-0.529,0.285-1.102,0.516-1.687C29.933,17.165,31.856,19.91,31.856,23.098z M25.378,21c0.552,0,1-0.448,1-1
	c0-0.082,0.009-0.599,0.107-1.33c0.607,0.375,1.017,1.04,1.017,1.804c0,1.171-0.953,2.124-2.124,2.124s-2.124-0.953-2.124-2.124
	c0-0.845,0.5-1.571,1.217-1.913c-0.062,0.514-0.093,1-0.093,1.438C24.378,20.552,24.826,21,25.378,21z M39.95,21.333
	c0.001,0.552,0.448,0.999,1,0.999h0.001c0.552,0,0.999-0.448,0.999-1c0-0.312-0.015-0.648-0.034-0.997
	c0.262,0.253,0.425,0.606,0.425,0.997c0,0.767-0.624,1.391-1.391,1.391s-1.392-0.624-1.392-1.391c0-0.349,0.133-0.665,0.348-0.909
	C39.947,20.97,39.95,21.315,39.95,21.333z M47.753,45.384L36.37,25.19l0.258-6.538l2.748-1.55c0.233,0.919,0.372,1.802,0.454,2.522
	c-0.557,0.366-0.926,0.993-0.926,1.708c0,1.128,0.918,2.046,2.046,2.046s2.046-0.918,2.046-2.046c0-0.804-0.471-1.494-1.146-1.828
	c-0.092-0.89-0.248-1.847-0.496-2.81l5.375,2.683L58.1,39.553L47.753,45.384z"/>
</svg>
